<?xml version="1.0" encoding="UTF-8" standalone="no"?>
<svg width="800" height="500" xmlns="http://www.w3.org/2000/svg">
  <!-- Background -->
  <rect width="800" height="500" fill="#f6f8fa" rx="10" ry="10"/>
  
  <!-- Title -->
  <text x="400" y="40" font-family="Arial, sans-serif" font-size="24" font-weight="bold" fill="#24292e" text-anchor="middle">GitHub Repository Secrets Setup</text>
  
  <!-- GitHub UI Mockup -->
  <rect x="100" y="70" width="600" height="380" fill="white" stroke="#e1e4e8" stroke-width="2" rx="5" ry="5"/>
  
  <!-- Navigation Bar -->
  <rect x="100" y="70" width="600" height="50" fill="#f6f8fa" stroke="#e1e4e8" stroke-width="1"/>
  <text x="130" y="100" font-family="Arial, sans-serif" font-size="16" fill="#24292e">Settings</text>
  <text x="220" y="100" font-family="Arial, sans-serif" font-size="16" fill="#24292e">›</text>
  <text x="250" y="100" font-family="Arial, sans-serif" font-size="16" fill="#24292e">Secrets and variables</text>
  <text x="430" y="100" font-family="Arial, sans-serif" font-size="16" fill="#24292e">›</text>
  <text x="460" y="100" font-family="Arial, sans-serif" font-size="16" fill="#0366d6" font-weight="bold">Actions</text>
  
  <!-- Secrets Section -->
  <text x="130" y="150" font-family="Arial, sans-serif" font-size="20" font-weight="bold" fill="#24292e">Repository secrets</text>
  
  <!-- Add Secret Button -->
  <rect x="550" y="135" width="130" height="30" fill="#2ea44f" rx="5" ry="5"/>
  <text x="615" y="155" font-family="Arial, sans-serif" font-size="14" fill="white" text-anchor="middle">New repository secret</text>
  
  <!-- Secrets Table -->
  <rect x="130" y="180" width="540" height="40" fill="#f6f8fa" stroke="#e1e4e8" stroke-width="1"/>
  <text x="150" y="205" font-family="Arial, sans-serif" font-size="14" font-weight="bold" fill="#24292e">Name</text>
  <text x="350" y="205" font-family="Arial, sans-serif" font-size="14" font-weight="bold" fill="#24292e">Updated</text>
  <text x="550" y="205" font-family="Arial, sans-serif" font-size="14" font-weight="bold" fill="#24292e">Actions</text>
  
  <!-- Secret 1 -->
  <rect x="130" y="220" width="540" height="50" fill="white" stroke="#e1e4e8" stroke-width="1"/>
  <text x="150" y="250" font-family="Arial, sans-serif" font-size="14" fill="#24292e">AWS_ACCESS_KEY_ID</text>
  <text x="350" y="250" font-family="Arial, sans-serif" font-size="14" fill="#586069">Updated 1 hour ago</text>
  <rect x="550" y="235" width="60" height="25" fill="#f6f8fa" stroke="#e1e4e8" stroke-width="1" rx="3" ry="3"/>
  <text x="580" y="250" font-family="Arial, sans-serif" font-size="12" fill="#24292e" text-anchor="middle">Update</text>
  <rect x="620" y="235" width="60" height="25" fill="#f6f8fa" stroke="#e1e4e8" stroke-width="1" rx="3" ry="3"/>
  <text x="650" y="250" font-family="Arial, sans-serif" font-size="12" fill="#24292e" text-anchor="middle">Remove</text>
  
  <!-- Secret 2 -->
  <rect x="130" y="270" width="540" height="50" fill="white" stroke="#e1e4e8" stroke-width="1"/>
  <text x="150" y="300" font-family="Arial, sans-serif" font-size="14" fill="#24292e">AWS_SECRET_ACCESS_KEY</text>
  <text x="350" y="300" font-family="Arial, sans-serif" font-size="14" fill="#586069">Updated 1 hour ago</text>
  <rect x="550" y="285" width="60" height="25" fill="#f6f8fa" stroke="#e1e4e8" stroke-width="1" rx="3" ry="3"/>
  <text x="580" y="300" font-family="Arial, sans-serif" font-size="12" fill="#24292e" text-anchor="middle">Update</text>
  <rect x="620" y="285" width="60" height="25" fill="#f6f8fa" stroke="#e1e4e8" stroke-width="1" rx="3" ry="3"/>
  <text x="650" y="300" font-family="Arial, sans-serif" font-size="12" fill="#24292e" text-anchor="middle">Remove</text>
  
  <!-- Add New Secret Form -->
  <rect x="130" y="350" width="540" height="80" fill="#f6f8fa" stroke="#e1e4e8" stroke-width="1" rx="5" ry="5"/>
  <text x="150" y="380" font-family="Arial, sans-serif" font-size="16" font-weight="bold" fill="#24292e">Add a new secret</text>
  <text x="150" y="410" font-family="Arial, sans-serif" font-size="14" fill="#586069">Secrets are encrypted environment variables used in workflows.</text>
</svg>
