<?xml version="1.0" encoding="UTF-8" standalone="no"?>
<svg width="600" height="500" xmlns="http://www.w3.org/2000/svg">
  <!-- Background -->
  <rect width="600" height="500" fill="#f8f9fa" rx="10" ry="10"/>
  
  <!-- Title -->
  <text x="300" y="30" font-family="Arial, sans-serif" font-size="18" font-weight="bold" fill="#232f3e" text-anchor="middle">Terragrunt Project Structure</text>
  
  <!-- Root Directory -->
  <rect x="50" y="60" width="500" height="40" fill="#5eead4" rx="5" ry="5" opacity="0.7"/>
  <text x="300" y="85" font-family="Arial, sans-serif" font-size="14" font-weight="bold" fill="#232f3e" text-anchor="middle">Root Directory</text>
  
  <!-- Root Files -->
  <rect x="70" y="110" width="150" height="30" fill="#5eead4" rx="5" ry="5" opacity="0.5"/>
  <text x="145" y="130" font-family="Arial, sans-serif" font-size="12" fill="#232f3e" text-anchor="middle">terragrunt.hcl</text>
  
  <rect x="230" y="110" width="150" height="30" fill="#5eead4" rx="5" ry="5" opacity="0.5"/>
  <text x="305" y="130" font-family="Arial, sans-serif" font-size="12" fill="#232f3e" text-anchor="middle">README.md</text>
  
  <rect x="390" y="110" width="150" height="30" fill="#5eead4" rx="5" ry="5" opacity="0.5"/>
  <text x="465" y="130" font-family="Arial, sans-serif" font-size="12" fill="#232f3e" text-anchor="middle">.github/workflows</text>
  
  <!-- Modules Directory -->
  <rect x="50" y="160" width="240" height="40" fill="#85c1e9" rx="5" ry="5" opacity="0.7"/>
  <text x="170" y="185" font-family="Arial, sans-serif" font-size="14" font-weight="bold" fill="#232f3e" text-anchor="middle">modules/</text>
  
  <!-- Module Files -->
  <rect x="70" y="210" width="200" height="30" fill="#85c1e9" rx="5" ry="5" opacity="0.5"/>
  <text x="170" y="230" font-family="Arial, sans-serif" font-size="12" fill="#232f3e" text-anchor="middle">kubernetes-cluster/</text>
  
  <rect x="70" y="250" width="200" height="30" fill="#85c1e9" rx="5" ry="5" opacity="0.5"/>
  <text x="170" y="270" font-family="Arial, sans-serif" font-size="12" fill="#232f3e" text-anchor="middle">kubernetes-namespace/</text>
  
  <rect x="70" y="290" width="200" height="30" fill="#85c1e9" rx="5" ry="5" opacity="0.5"/>
  <text x="170" y="310" font-family="Arial, sans-serif" font-size="12" fill="#232f3e" text-anchor="middle">kubernetes-application/</text>
  
  <rect x="70" y="330" width="200" height="30" fill="#85c1e9" rx="5" ry="5" opacity="0.5"/>
  <text x="170" y="350" font-family="Arial, sans-serif" font-size="12" fill="#232f3e" text-anchor="middle">vpc/</text>
  
  <!-- Environments Directory -->
  <rect x="310" y="160" width="240" height="40" fill="#f39c12" rx="5" ry="5" opacity="0.7"/>
  <text x="430" y="185" font-family="Arial, sans-serif" font-size="14" font-weight="bold" fill="#232f3e" text-anchor="middle">environments/</text>
  
  <!-- Environment Directories -->
  <rect x="330" y="210" width="200" height="30" fill="#f39c12" rx="5" ry="5" opacity="0.5"/>
  <text x="430" y="230" font-family="Arial, sans-serif" font-size="12" fill="#232f3e" text-anchor="middle">dev/</text>
  
  <rect x="330" y="250" width="200" height="30" fill="#f39c12" rx="5" ry="5" opacity="0.5"/>
  <text x="430" y="270" font-family="Arial, sans-serif" font-size="12" fill="#232f3e" text-anchor="middle">staging/</text>
  
  <rect x="330" y="290" width="200" height="30" fill="#f39c12" rx="5" ry="5" opacity="0.5"/>
  <text x="430" y="310" font-family="Arial, sans-serif" font-size="12" fill="#232f3e" text-anchor="middle">prod/</text>
  
  <!-- Environment Structure (Dev as example) -->
  <rect x="150" y="380" width="300" height="40" fill="#f39c12" rx="5" ry="5" opacity="0.5"/>
  <text x="300" y="405" font-family="Arial, sans-serif" font-size="14" font-weight="bold" fill="#232f3e" text-anchor="middle">Environment Structure (e.g., dev/)</text>
  
  <rect x="70" y="430" width="150" height="30" fill="#f39c12" rx="5" ry="5" opacity="0.3"/>
  <text x="145" y="450" font-family="Arial, sans-serif" font-size="12" fill="#232f3e" text-anchor="middle">terragrunt.hcl</text>
  
  <rect x="230" y="430" width="150" height="30" fill="#f39c12" rx="5" ry="5" opacity="0.3"/>
  <text x="305" y="450" font-family="Arial, sans-serif" font-size="12" fill="#232f3e" text-anchor="middle">vpc/</text>
  
  <rect x="390" y="430" width="150" height="30" fill="#f39c12" rx="5" ry="5" opacity="0.3"/>
  <text x="465" y="450" font-family="Arial, sans-serif" font-size="12" fill="#232f3e" text-anchor="middle">kubernetes-cluster/</text>
  
  <rect x="150" y="470" width="150" height="30" fill="#f39c12" rx="5" ry="5" opacity="0.3"/>
  <text x="225" y="490" font-family="Arial, sans-serif" font-size="12" fill="#232f3e" text-anchor="middle">kubernetes-namespace/</text>
  
  <rect x="310" y="470" width="150" height="30" fill="#f39c12" rx="5" ry="5" opacity="0.3"/>
  <text x="385" y="490" font-family="Arial, sans-serif" font-size="12" fill="#232f3e" text-anchor="middle">kubernetes-application/</text>
  
  <!-- Connections -->
  <line x1="300" y1="100" x2="170" y2="160" stroke="#232f3e" stroke-width="1"/>
  <line x1="300" y1="100" x2="430" y2="160" stroke="#232f3e" stroke-width="1"/>
  
  <line x1="430" y1="240" x2="300" y2="380" stroke="#232f3e" stroke-width="1" stroke-dasharray="5,5"/>
</svg>
