<?xml version="1.0" encoding="UTF-8" standalone="no"?>
<svg width="600" height="400" xmlns="http://www.w3.org/2000/svg">
  <!-- Background -->
  <rect width="600" height="400" fill="#f8f9fa" rx="10" ry="10"/>
  
  <!-- VPC -->
  <rect x="50" y="50" width="500" height="300" fill="#ff9900" rx="10" ry="10" opacity="0.1" stroke="#ff9900" stroke-width="2"/>
  <text x="100" y="75" font-family="Arial, sans-serif" font-size="16" font-weight="bold" fill="#232f3e">VPC (10.0.0.0/16)</text>
  
  <!-- Availability Zones -->
  <rect x="70" y="90" width="140" height="240" fill="#232f3e" rx="5" ry="5" opacity="0.05" stroke="#232f3e" stroke-width="1" stroke-dasharray="5,5"/>
  <text x="140" y="110" font-family="Arial, sans-serif" font-size="12" fill="#232f3e" text-anchor="middle">Availability Zone A</text>
  
  <rect x="230" y="90" width="140" height="240" fill="#232f3e" rx="5" ry="5" opacity="0.05" stroke="#232f3e" stroke-width="1" stroke-dasharray="5,5"/>
  <text x="300" y="110" font-family="Arial, sans-serif" font-size="12" fill="#232f3e" text-anchor="middle">Availability Zone B</text>
  
  <rect x="390" y="90" width="140" height="240" fill="#232f3e" rx="5" ry="5" opacity="0.05" stroke="#232f3e" stroke-width="1" stroke-dasharray="5,5"/>
  <text x="460" y="110" font-family="Arial, sans-serif" font-size="12" fill="#232f3e" text-anchor="middle">Availability Zone C</text>
  
  <!-- Public Subnets -->
  <rect x="80" y="130" width="120" height="60" fill="#7dcea0" rx="5" ry="5" opacity="0.5"/>
  <text x="140" y="155" font-family="Arial, sans-serif" font-size="10" fill="#232f3e" text-anchor="middle">Public Subnet</text>
  <text x="140" y="175" font-family="Arial, sans-serif" font-size="10" fill="#232f3e" text-anchor="middle">10.0.1.0/24</text>
  
  <rect x="240" y="130" width="120" height="60" fill="#7dcea0" rx="5" ry="5" opacity="0.5"/>
  <text x="300" y="155" font-family="Arial, sans-serif" font-size="10" fill="#232f3e" text-anchor="middle">Public Subnet</text>
  <text x="300" y="175" font-family="Arial, sans-serif" font-size="10" fill="#232f3e" text-anchor="middle">10.0.2.0/24</text>
  
  <rect x="400" y="130" width="120" height="60" fill="#7dcea0" rx="5" ry="5" opacity="0.5"/>
  <text x="460" y="155" font-family="Arial, sans-serif" font-size="10" fill="#232f3e" text-anchor="middle">Public Subnet</text>
  <text x="460" y="175" font-family="Arial, sans-serif" font-size="10" fill="#232f3e" text-anchor="middle">10.0.3.0/24</text>
  
  <!-- Private Subnets -->
  <rect x="80" y="210" width="120" height="60" fill="#85c1e9" rx="5" ry="5" opacity="0.5"/>
  <text x="140" y="235" font-family="Arial, sans-serif" font-size="10" fill="#232f3e" text-anchor="middle">Private Subnet</text>
  <text x="140" y="255" font-family="Arial, sans-serif" font-size="10" fill="#232f3e" text-anchor="middle">10.0.4.0/24</text>
  
  <rect x="240" y="210" width="120" height="60" fill="#85c1e9" rx="5" ry="5" opacity="0.5"/>
  <text x="300" y="235" font-family="Arial, sans-serif" font-size="10" fill="#232f3e" text-anchor="middle">Private Subnet</text>
  <text x="300" y="255" font-family="Arial, sans-serif" font-size="10" fill="#232f3e" text-anchor="middle">10.0.5.0/24</text>
  
  <rect x="400" y="210" width="120" height="60" fill="#85c1e9" rx="5" ry="5" opacity="0.5"/>
  <text x="460" y="235" font-family="Arial, sans-serif" font-size="10" fill="#232f3e" text-anchor="middle">Private Subnet</text>
  <text x="460" y="255" font-family="Arial, sans-serif" font-size="10" fill="#232f3e" text-anchor="middle">10.0.6.0/24</text>
  
  <!-- Internet Gateway -->
  <rect x="280" y="30" width="40" height="40" fill="#ff9900" rx="5" ry="5" opacity="0.7"/>
  <text x="300" y="52" font-family="Arial, sans-serif" font-size="10" fill="white" text-anchor="middle">IGW</text>
  
  <!-- NAT Gateways -->
  <rect x="120" y="150" width="40" height="20" fill="#ff9900" rx="5" ry="5" opacity="0.7"/>
  <text x="140" y="165" font-family="Arial, sans-serif" font-size="8" fill="white" text-anchor="middle">NAT</text>
  
  <rect x="280" y="150" width="40" height="20" fill="#ff9900" rx="5" ry="5" opacity="0.7"/>
  <text x="300" y="165" font-family="Arial, sans-serif" font-size="8" fill="white" text-anchor="middle">NAT</text>
  
  <rect x="440" y="150" width="40" height="20" fill="#ff9900" rx="5" ry="5" opacity="0.7"/>
  <text x="460" y="165" font-family="Arial, sans-serif" font-size="8" fill="white" text-anchor="middle">NAT</text>
  
  <!-- Route Tables -->
  <rect x="80" y="280" width="120" height="30" fill="#d6eaf8" rx="5" ry="5" opacity="0.7" stroke="#85c1e9" stroke-width="1"/>
  <text x="140" y="300" font-family="Arial, sans-serif" font-size="10" fill="#232f3e" text-anchor="middle">Private Route Table</text>
  
  <rect x="240" y="280" width="120" height="30" fill="#d6eaf8" rx="5" ry="5" opacity="0.7" stroke="#85c1e9" stroke-width="1"/>
  <text x="300" y="300" font-family="Arial, sans-serif" font-size="10" fill="#232f3e" text-anchor="middle">Private Route Table</text>
  
  <rect x="400" y="280" width="120" height="30" fill="#d6eaf8" rx="5" ry="5" opacity="0.7" stroke="#85c1e9" stroke-width="1"/>
  <text x="460" y="300" font-family="Arial, sans-serif" font-size="10" fill="#232f3e" text-anchor="middle">Private Route Table</text>
  
  <rect x="240" y="330" width="120" height="30" fill="#d5f5e3" rx="5" ry="5" opacity="0.7" stroke="#7dcea0" stroke-width="1"/>
  <text x="300" y="350" font-family="Arial, sans-serif" font-size="10" fill="#232f3e" text-anchor="middle">Public Route Table</text>
  
  <!-- Security Group -->
  <rect x="50" y="330" width="120" height="30" fill="#fadbd8" rx="5" ry="5" opacity="0.7" stroke="#e74c3c" stroke-width="1"/>
  <text x="110" y="350" font-family="Arial, sans-serif" font-size="10" fill="#232f3e" text-anchor="middle">Security Group</text>
  
  <!-- Connections -->
  <!-- IGW to Public Route Table -->
  <line x1="300" y1="70" x2="300" y2="330" stroke="#ff9900" stroke-width="1" stroke-dasharray="5,5"/>
  
  <!-- NAT to Private Route Tables -->
  <line x1="140" y1="170" x2="140" y2="280" stroke="#ff9900" stroke-width="1" stroke-dasharray="5,5"/>
  <line x1="300" y1="170" x2="300" y2="280" stroke="#ff9900" stroke-width="1" stroke-dasharray="5,5"/>
  <line x1="460" y1="170" x2="460" y2="280" stroke="#ff9900" stroke-width="1" stroke-dasharray="5,5"/>
  
  <!-- Title -->
  <text x="300" y="380" font-family="Arial, sans-serif" font-size="14" font-weight="bold" fill="#232f3e" text-anchor="middle">VPC Architecture with Multi-AZ Subnets</text>
</svg>
